# xmcd CD database file
#
# Track frame offsets:
#	150
#	16115
#	36293
#	52336
#
# Disc length: 965 seconds
#
# Revision: 0
# Processed by: cddbd v1.5.1PL2 Copyright (c) Steve Scherf et al.
# Submitted via: CDex 1.51
#
DISCID=2e03c304
DTITLE=アリス九號. - 暁／幾億のシャンデリア
DYEAR=2006
DGENRE=ロック (日本)
TTITLE0=暁
TTITLE1=幾億のシャンデリア
TTITLE2=暁 (オリジナル・カラオケ)
TTITLE3=幾億のシャンデリア (オリジナル・カラオケ)
EXTD=YEAR: 2006.02.22
EXTT0=
EXTT1=
EXTT2=
EXTT3=
PLAYORDER=
